<?xml version="1.0" encoding="windows-1252"?>
<!-- Generator: Adobe Illustrator 16.0.0, SVG Export Plug-In . SVG Version: 6.00 Build 0)  -->
<!DOCTYPE svg PUBLIC "-//W3C//DTD SVG 1.1//EN" "http://www.w3.org/Graphics/SVG/1.1/DTD/svg11.dtd">
<svg version="1.1" id="Capa_1" xmlns="http://www.w3.org/2000/svg" xmlns:xlink="http://www.w3.org/1999/xlink" x="0px" y="0px" width="408.221px" height="408.221px" viewBox="0 0 408.221 408.221" style="enable-background:new 0 0 408.221 408.221;" xml:space="preserve">
<g>
	<g>
		<path d="M408.221,204.111C408.221,91.388,316.839,0,204.11,0C91.388,0,0,91.388,0,204.111c0,112.725,91.388,204.11,204.11,204.11    C316.839,408.221,408.221,316.836,408.221,204.111z M295.68,265.524c0,16.647-13.509,30.152-30.147,30.152H142.707    c-16.651,0-30.156-13.505-30.156-30.152V142.689c0-16.649,13.505-30.146,30.156-30.146h122.826    c16.654,0,30.147,13.497,30.147,30.146V265.524z"/>
	</g>
</g>
<g>
</g>
<g>
</g>
<g>
</g>
<g>
</g>
<g>
</g>
<g>
</g>
<g>
</g>
<g>
</g>
<g>
</g>
<g>
</g>
<g>
</g>
<g>
</g>
<g>
</g>
<g>
</g>
<g>
</g>
</svg>